<?xml version="1.0" encoding="UTF-8"?>
<svg version="1.1" xmlns="http://www.w3.org/2000/svg" width="512" height="512">
<path d="M0 0 C3.10397662 1.05470442 4.50449764 0.79622016 7.62109375 -0.109375 C9.04035156 -0.46515625 9.04035156 -0.46515625 10.48828125 -0.828125 C11.48085938 -1.0859375 12.4734375 -1.34375 13.49609375 -1.609375 C26.01478691 -4.72764 42.46285216 -6.88143628 54.40234375 -0.66015625 C56.62109375 0.890625 56.62109375 0.890625 57.62109375 2.890625 C57.97283227 6.68940099 58.14810819 9.03422653 56.12109375 12.328125 C51.73801096 15.06755175 47.19343091 14.12795891 42.30859375 13.390625 C35.42147605 12.45677853 28.4362227 12.41708361 21.62109375 13.890625 C21.97300781 14.35210937 22.32492187 14.81359375 22.6875 15.2890625 C24.34562319 17.47969 25.98473465 19.68369332 27.62109375 21.890625 C28.20890625 22.67308594 28.79671875 23.45554687 29.40234375 24.26171875 C39.62109375 38.26768092 39.62109375 38.26768092 39.62109375 44.890625 C40.35972656 44.91640625 41.09835937 44.9421875 41.859375 44.96875 C56.06497009 45.7629637 68.883156 51.09284197 78.73828125 61.56640625 C84.35579767 68.50089228 88.09788285 75.77921269 89.91796875 84.515625 C90.70160158 87.16256256 91.93174819 88.73717351 93.62109375 90.890625 C93.62109375 91.550625 93.62109375 92.210625 93.62109375 92.890625 C94.87768799 92.88538818 96.13428223 92.88015137 97.42895508 92.87475586 C102.08617441 92.85667083 106.74339063 92.84518013 111.40063477 92.83569336 C113.41724164 92.83066118 115.43384485 92.82383486 117.45043945 92.81518555 C120.34717714 92.80307127 123.24386663 92.79738557 126.140625 92.79296875 C127.04383987 92.78780746 127.94705475 92.78264618 128.87763977 92.77732849 C130.13860725 92.77721519 130.13860725 92.77721519 131.42504883 92.77709961 C132.16451248 92.774879 132.90397614 92.77265839 133.66584778 92.77037048 C135.62109375 92.890625 135.62109375 92.890625 138.62109375 93.890625 C137.40205745 91.34365587 136.17139822 88.8034575 134.93359375 86.265625 C134.4240918 85.19634766 134.4240918 85.19634766 133.90429688 84.10546875 C128.69175932 73.48553241 120.90157283 67.32548773 110.0859375 62.6875 C106.27219477 61.45453088 102.39467625 60.99894061 98.41796875 60.578125 C94.90072973 59.71355228 93.17609525 58.4456265 90.62109375 55.890625 C89.28515625 53.2265625 89.28515625 53.2265625 88.24609375 50.265625 C85.2223605 42.48354036 80.88868802 36.25805996 75.18359375 30.203125 C72.87219939 27.5827207 72.62153981 26.89354916 72.05859375 23.203125 C72.91491916 18.16031982 72.91491916 18.16031982 75.62109375 15.890625 C79.61160708 14.68594173 81.72795644 14.49156365 85.55859375 16.203125 C91.83541113 21.13134236 96.12482561 27.6408677 99.42138672 34.79980469 C102.20047142 41.07086244 102.20047142 41.07086244 107.37109375 45.3046875 C110.37526457 45.9927956 110.37526457 45.9927956 113.4765625 46.38671875 C125.68183567 48.34259482 136.76779297 57.74453521 143.99609375 67.328125 C150.75910181 77.28592827 155.28440849 87.4736368 155.93359375 99.640625 C156.31498552 104.07430438 158.24415415 106.30148372 160.98754883 109.6784668 C166.43601422 117.05681755 166.90921054 124.72721027 166.80859375 133.60546875 C166.79950485 134.5880365 166.79041595 135.57060425 166.78105164 136.58294678 C166.72838696 140.7025776 166.65771751 144.81891052 166.50830078 148.9362793 C165.61671991 161.54151316 165.61671991 161.54151316 170.22973633 172.77587891 C172.23151042 174.88823506 174.3603384 176.67924358 176.67114258 178.44165039 C182.19623647 183.02844314 185.1325431 189.91897351 186.62109375 196.890625 C186.69036343 199.65032908 186.71526735 202.38258542 186.68359375 205.140625 C186.67908203 205.88570312 186.67457031 206.63078125 186.66992188 207.3984375 C186.65818621 209.2292014 186.64025225 211.05992373 186.62109375 212.890625 C187.20375 212.89320313 187.78640625 212.89578125 188.38671875 212.8984375 C198.21930779 213.36223887 207.79333698 217.74529814 214.62109375 224.890625 C222.8609071 236.29690591 225.09414941 246.0426717 223.62109375 259.890625 C220.63128071 272.44783975 212.47197958 279.72568724 202.296875 286.875 C190.55988781 295.71629254 185.65053699 308.79359857 181.34375 322.3828125 C180.57489664 324.74089417 179.80601558 327.09896681 179.03710938 329.45703125 C177.85834845 333.11116563 176.68332078 336.76647554 175.51000977 340.42236328 C167.5604285 365.11341381 159.37176424 387.96293005 135.46484375 401.54296875 C123.50291153 407.21174157 112.09817798 409.04153499 99.01585388 409.03106689 C97.26985534 409.03552358 97.26985534 409.03552358 95.4885841 409.0400703 C92.27056944 409.04722562 89.05258739 409.04992767 85.834566 409.05066776 C82.3585818 409.05252522 78.88260902 409.06007604 75.40663147 409.06680298 C67.81130847 409.08035933 60.21599077 409.08640693 52.62065768 409.09081364 C47.87311679 409.09358088 43.12557793 409.09781913 38.37803841 409.10231781 C25.2194389 409.11450742 12.06084101 409.12480704 -1.09776402 409.1281929 C-1.93923312 409.12841247 -2.78070222 409.12863203 -3.64767038 409.12885825 C-4.91280338 409.12918567 -4.91280338 409.12918567 -6.20349461 409.1295197 C-7.91243716 409.12996316 -9.62137971 409.13040972 -11.33032227 409.13085938 C-12.17800723 409.1310808 -13.0256922 409.13130223 -13.89906459 409.13153037 C-27.62408842 409.13547552 -41.34905906 409.15292228 -55.07406235 409.1762189 C-69.18368851 409.19997395 -83.29328803 409.21239666 -97.40293449 409.21356082 C-105.31752193 409.2144753 -113.23204008 409.22017006 -121.14660835 409.23838043 C-127.8881109 409.25383765 -134.62952273 409.25886895 -141.37103964 409.25064233 C-144.80571801 409.24675548 -148.24021402 409.24756815 -151.67486954 409.26169968 C-176.00621291 409.34485337 -197.33444398 407.29833362 -216.00390625 389.828125 C-229.76580329 375.11122087 -234.70599755 356.96916058 -240.90736389 338.26576233 C-242.12702317 334.59683297 -243.35706187 330.93141169 -244.58731079 327.26602173 C-245.48545747 324.57098362 -246.36476048 321.87030632 -247.24291992 319.16870117 C-252.31261411 303.82899599 -258.49580102 292.40625631 -271.94140625 282.890625 C-280.48074461 276.76940297 -285.7177866 270.27465358 -288.37890625 259.890625 C-289.9604812 247.56108246 -288.46133732 237.36924894 -281.19140625 227.140625 C-275.58391022 220.34438784 -267.34150396 214.71584205 -258.5 213.4921875 C-255.79300763 213.23635425 -253.09401151 213.03300846 -250.37890625 212.890625 C-250.70890625 211.900625 -251.03890625 210.910625 -251.37890625 209.890625 C-252.33840249 199.53600629 -252.26464248 189.25369227 -247.37890625 179.890625 C-246.70794922 178.58544922 -246.70794922 178.58544922 -246.0234375 177.25390625 C-241.97644477 169.99535896 -237.01740296 164.74087024 -230.31640625 159.890625 C-221.77326858 153.59916703 -218.83472654 147.40181372 -216.83984375 137.109375 C-216.0192449 131.12383045 -216.57565399 126.5496139 -218.31640625 120.765625 C-223.0604509 104.70505717 -220.93626705 88.51885196 -213.1015625 73.7734375 C-205.627979 61.26662429 -195.00297369 52.16779543 -181.37890625 46.890625 C-179.29914416 46.5551795 -177.2156167 46.24221587 -175.12890625 45.953125 C-170.91045027 45.03702338 -169.69966145 44.34375537 -167.1640625 40.76171875 C-165.77015927 38.16163767 -164.53391149 35.49604522 -163.29296875 32.8203125 C-156.06228202 17.31957456 -140.1991735 6.07764799 -124.47167969 0.17480469 C-108.47077676 -5.23079355 -88.61457296 -6.90971129 -72.72265625 0.0546875 C-67.93599765 1.76192907 -63.72270643 -0.69676976 -59.25390625 -2.546875 C-39.95216746 -10.00877625 -18.63961283 -8.99665085 0 0 Z M-79.12109375 30.8203125 C-85.94822208 39.34537948 -90.0049683 49.3120243 -92.37890625 59.890625 C-93.79542194 60.03791756 -95.21213318 60.18332901 -96.62890625 60.328125 C-98.00175781 60.47507812 -98.00175781 60.47507812 -99.40234375 60.625 C-101.36144062 60.79982754 -103.32679312 60.91603752 -105.29296875 60.96875 C-114.94521838 61.32529748 -123.12859382 64.57513399 -130.31640625 71.140625 C-136.56480781 78.00011718 -139.54084585 85.99218181 -139.44140625 95.140625 C-139.42787109 96.75710937 -139.42787109 96.75710937 -139.4140625 98.40625 C-139.40246094 99.22609375 -139.39085937 100.0459375 -139.37890625 100.890625 C-129.9200026 101.75197542 -123.15892611 100.11535135 -114.69140625 96.30078125 C-101.07381573 90.50367019 -87.14372922 94.43878796 -74.06640625 99.578125 C-62.94584247 103.53629177 -54.81083229 100.67164069 -44.30859375 96.03515625 C-41.62849162 94.98812968 -39.33553548 94.47379036 -36.50390625 94.078125 C-32.79269796 93.37726732 -31.44882986 92.19618971 -29.25390625 89.140625 C-28.54814453 88.07328125 -28.54814453 88.07328125 -27.828125 86.984375 C-23.18945558 80.28268549 -16.01224115 76.26286819 -8.18354797 74.35585022 C-4.85585589 73.80386304 -1.66751283 73.72725066 1.70629883 73.68530273 C2.74614929 73.67045334 2.74614929 73.67045334 3.80700684 73.65530396 C6.08484552 73.62386625 8.36270502 73.59900216 10.640625 73.57421875 C12.22532169 73.55363388 13.81001308 73.53263701 15.3946991 73.51124573 C19.5555287 73.45618329 23.71640654 73.40670455 27.87731934 73.35839844 C32.12724069 73.30806748 36.37709241 73.25244207 40.62695312 73.19726562 C48.95827437 73.08987779 57.28965406 72.98839021 65.62109375 72.890625 C60.64200843 66.41675583 54.49138628 62.79426964 46.37890625 61.2890625 C42.40622655 60.94231988 38.50518739 60.87503645 34.51953125 60.9453125 C32.00076788 60.89778866 30.01259278 60.62647086 27.62109375 59.890625 C27.41806641 58.94316406 27.41806641 58.94316406 27.2109375 57.9765625 C23.09927652 40.88977974 14.05452166 26.99128735 -0.78125 17.3515625 C-28.05686 2.01159537 -58.36883915 7.8346314 -79.12109375 30.8203125 Z M-142.37890625 30.890625 C-148.19323888 38.22682994 -152.50781037 45.64677618 -156.08984375 54.30859375 C-157.37890625 56.890625 -157.37890625 56.890625 -160.37890625 58.890625 C-162.70268234 59.35765843 -165.03837141 59.76652312 -167.37890625 60.140625 C-178.38129421 62.13055979 -188.57253305 67.28186185 -195.25390625 76.46875 C-200.80693124 84.93711311 -204.56543964 92.40835356 -204.44140625 102.703125 C-204.43238281 103.67894531 -204.42335938 104.65476562 -204.4140625 105.66015625 C-204.40246094 106.39621094 -204.39085937 107.13226563 -204.37890625 107.890625 C-203.940625 107.52710938 -203.50234375 107.16359375 -203.05078125 106.7890625 C-190.04558587 96.48006616 -177.75193066 93.06525566 -161.37890625 93.890625 C-159.37356714 94.19016824 -157.37097411 94.51276691 -155.37890625 94.890625 C-155.23195312 93.87484375 -155.085 92.8590625 -154.93359375 91.8125 C-152.55585182 76.70185789 -147.18165883 65.13061992 -135.22265625 55.078125 C-128.87942528 50.48158082 -121.11534775 47.07843929 -113.2265625 46.765625 C-109.78443024 46.62672433 -107.49702533 46.39210563 -104.37890625 44.890625 C-101.79681319 41.11162422 -100.04250791 37.29340426 -98.2578125 33.09765625 C-95.83392316 27.40080982 -92.19234027 22.72717546 -88.37890625 17.890625 C-87.37601086 16.55946813 -86.37497893 15.22689481 -85.37890625 13.890625 C-104.38881618 7.13154591 -129.36008526 15.95430324 -142.37890625 30.890625 Z M-13.37890625 93.890625 C-13.37890625 94.550625 -13.37890625 95.210625 -13.37890625 95.890625 C-12.62867188 96.21933594 -11.8784375 96.54804688 -11.10546875 96.88671875 C1.94660409 102.95248056 11.16421125 111.3310101 16.30859375 124.953125 C17.45007242 128.64808485 18.04132548 132.3667724 18.63647461 136.17773438 C20.64507199 148.88657862 24.71605758 154.60071952 34.62109375 162.890625 C36.71563671 164.8036651 38.80880264 166.71797805 40.89453125 168.640625 C42.670836 170.18383845 42.670836 170.18383845 45.62109375 169.890625 C47.47921228 168.65499028 47.47921228 168.65499028 49.3581543 166.92260742 C50.09848907 166.26804565 50.83882385 165.61348389 51.60159302 164.93908691 C74.37508894 146.47367606 74.37508894 146.47367606 85.41137695 121.02270508 C84.77240255 111.360015 82.61009451 102.76607037 76.37109375 95.140625 C68.01760823 88.30595503 60.32785726 88.30823887 49.9921875 88.39453125 C48.47339305 88.39437602 46.95459822 88.3928831 45.43580627 88.39012146 C42.26439744 88.38874247 39.09344361 88.40121224 35.92211914 88.42407227 C31.87150176 88.45248014 27.821638 88.44970647 23.77096462 88.43698215 C20.63867331 88.43000476 17.50655407 88.43783724 14.37428474 88.45023918 C12.88126347 88.45473199 11.38822358 88.4551096 9.89520073 88.45117378 C7.80402037 88.44824045 5.71385435 88.46486612 3.62280273 88.48657227 C2.43669907 88.49197525 1.2505954 88.49737823 0.02854919 88.50294495 C-5.16061967 89.09333778 -9.01642416 90.98230361 -13.37890625 93.890625 Z M-194.20703125 121.13671875 C-198.35808484 127.11141482 -200.2853829 132.62291852 -201.31616211 139.85449219 C-203.01543173 151.59682994 -206.78192282 162.66588231 -216.40234375 170.28515625 C-217.51771382 171.09365901 -218.63496253 171.89957533 -219.75390625 172.703125 C-224.89415831 176.53936875 -229.17575563 180.22708332 -232.37890625 185.890625 C-232.7140625 186.4784375 -233.04921875 187.06625 -233.39453125 187.671875 C-236.31984503 193.94800275 -236.00133962 201.12469339 -235.37890625 207.890625 C-234.7460784 209.57043187 -234.08440257 211.24001991 -233.37890625 212.890625 C-232.74353062 212.89209156 -232.10815498 212.89355812 -231.45352554 212.89506912 C-215.99665942 212.93211347 -200.54005653 212.99109631 -185.08337784 213.07452774 C-177.60864143 213.11434496 -170.13401072 213.14672373 -162.65917969 213.16162109 C-156.14444765 213.17462382 -149.6299479 213.20155281 -143.11534667 213.24523807 C-139.66553612 213.26788439 -136.21601239 213.28353382 -132.76612091 213.28250885 C-128.91578067 213.28162575 -125.06602761 213.31183291 -121.21582031 213.34472656 C-119.4981546 213.33718102 -119.4981546 213.33718102 -117.74578857 213.32948303 C-116.17250793 213.35035225 -116.17250793 213.35035225 -114.56744385 213.37164307 C-113.65671238 213.37533024 -112.74598091 213.37901741 -111.80765152 213.38281631 C-108.5969699 214.05411438 -107.39126713 215.34999752 -105.37890625 217.890625 C-104.87890625 220.890625 -104.87890625 220.890625 -105.37890625 223.890625 C-107.48976712 226.63178338 -108.67258539 227.76161621 -112.11326981 228.39005375 C-113.16847195 228.38984447 -114.22367409 228.38963518 -115.31085205 228.38941956 C-116.52484177 228.39899689 -117.73883148 228.40857422 -118.98960876 228.41844177 C-120.33194218 228.40894432 -121.67427311 228.39909042 -123.01660156 228.38891602 C-124.4327705 228.3927398 -125.84893556 228.39835936 -127.26509094 228.40563965 C-130.31374445 228.41759213 -133.36205357 228.41709947 -136.4107132 228.40704536 C-141.23566568 228.39148014 -146.06026481 228.40516684 -150.88519287 228.42308044 C-160.26214527 228.45391056 -169.63898987 228.45540203 -179.01598358 228.45343018 C-190.93707103 228.45203785 -202.85807487 228.46245488 -214.77910113 228.5020079 C-219.57058992 228.51690881 -224.36176542 228.51669532 -229.1532588 228.50453007 C-232.1418882 228.49980329 -235.13039894 228.50736375 -238.11900902 228.51807404 C-239.49922715 228.52047065 -240.87946554 228.51777865 -242.25966072 228.50946617 C-251.94298781 228.45466153 -260.07021974 228.78495756 -267.37890625 235.890625 C-272.48161828 242.83598303 -273.13153483 248.42892942 -272.37890625 256.890625 C-270.37232878 264.17957809 -265.25271639 268.04627228 -259.39453125 272.34765625 C-237.61529971 288.3444174 -231.67703299 313.44611375 -223.76513672 338.0402832 C-222.67702526 341.41409952 -221.57555508 344.78333737 -220.47265625 348.15234375 C-220.15059204 349.16721359 -219.82852783 350.18208344 -219.4967041 351.22770691 C-214.22466464 367.26487397 -205.64218575 380.00739273 -190.37890625 387.890625 C-183.50777555 390.85606035 -176.89168665 393.01106636 -169.3618536 393.02205276 C-168.3700144 393.02589391 -167.3781752 393.02973505 -166.35628027 393.0336926 C-165.2740006 393.03282612 -164.19172092 393.03195963 -163.0766449 393.03106689 C-161.92111069 393.03403802 -160.76557649 393.03700914 -159.57502609 393.0400703 C-156.37143464 393.04724142 -153.16787588 393.04992891 -149.96427763 393.05066776 C-146.50738322 393.05252138 -143.05050037 393.06007037 -139.59361267 393.06680298 C-132.03549443 393.08037553 -124.47738151 393.08640961 -116.91925311 393.09081364 C-112.19686505 393.09357843 -107.47447904 393.09781627 -102.75209236 393.10231781 C-89.66905947 393.1145101 -76.58602822 393.12480882 -63.50298977 393.1281929 C-62.66588252 393.12841247 -61.82877528 393.12863203 -60.96630115 393.12885825 C-60.12722193 393.12907653 -59.28814271 393.12929481 -58.42363685 393.1295197 C-56.72342392 393.12996316 -55.02321098 393.13040973 -53.32299805 393.13085938 C-52.47963868 393.1310808 -51.63627932 393.13130223 -50.76736362 393.13153037 C-37.11199318 393.1354756 -23.45667619 393.1529214 -9.80132639 393.1762189 C4.22912594 393.19996244 18.25955148 393.21239615 32.29002422 393.21356082 C40.16321819 393.214476 48.03634255 393.22018858 55.90951729 393.23838043 C62.61599174 393.25382214 69.32237506 393.25887805 76.02886391 393.25064233 C79.44707875 393.24674989 82.86511032 393.24759597 86.28330231 393.26169968 C89.99900672 393.27443989 93.71424529 393.26853046 97.4299469 393.25811768 C98.49661152 393.26617408 99.56327614 393.27423048 100.66226393 393.28253102 C116.34475485 393.18021853 129.0356545 388.02553568 140.40234375 377.234375 C153.00847637 363.91803773 157.01758548 343.93366683 162.45629883 326.94628906 C173.18608186 293.51443571 173.18608186 293.51443571 183.62109375 281.890625 C184.49314453 280.91609375 184.49314453 280.91609375 185.3828125 279.921875 C189.08182372 276.02028102 192.96733031 272.85001857 197.37109375 269.765625 C202.65558171 266.04013418 205.55157293 263.09918746 207.62109375 256.890625 C208.10928558 250.38453004 208.5257178 244.41095556 204.62109375 238.890625 C200.50766612 234.22132877 195.87145092 230.07135239 189.62109375 228.890625 C188.05712402 228.80199093 186.48986461 228.76407264 184.92338562 228.76313305 C183.97737142 228.7601254 183.03135721 228.75711775 182.05667591 228.75401896 C180.50241162 228.75664452 180.50241162 228.75664452 178.91674805 228.75932312 C177.81359347 228.75720741 176.7104389 228.75509169 175.5738554 228.75291187 C171.86433122 228.74690345 168.15484097 228.74791261 164.4453125 228.7487793 C161.79114597 228.74574844 159.13698342 228.74230163 156.4828186 228.73825073 C150.76105761 228.73013979 145.03930108 228.72519468 139.3175354 228.72196007 C130.27636844 228.71646338 121.23523919 228.69956661 112.1940918 228.68061829 C109.10127265 228.67426173 106.0084534 228.6679533 102.91563416 228.66164112 C102.14273208 228.66005736 101.36983 228.6584736 100.57350665 228.65684184 C91.7765462 228.63890711 82.9795831 228.62267889 74.18261719 228.60766602 C73.37846245 228.60629014 72.57430771 228.60491427 71.74578464 228.60349671 C58.70575917 228.58155274 45.66574341 228.57080682 32.62570274 228.56329527 C19.24164625 228.55523005 5.85767316 228.53196068 -7.52633572 228.4953416 C-15.78441274 228.47329464 -24.04231841 228.4636586 -32.30042338 228.46984193 C-37.95661196 228.47301156 -43.61265394 228.46171949 -49.26879716 228.43894752 C-52.53417411 228.42625474 -55.79915697 228.4223074 -59.06455612 228.43136406 C-62.60155951 228.44018581 -66.13763305 228.42466609 -69.67456055 228.40287781 C-71.22882484 228.41554161 -71.22882484 228.41554161 -72.81448841 228.42846125 C-79.72287639 228.34936731 -79.72287639 228.34936731 -83.01667786 226.0461092 C-84.89168334 223.07924644 -84.95304711 221.33547015 -84.37890625 217.890625 C-83.04156494 215.73724365 -83.04156494 215.73724365 -80.37890625 213.890625 C-76.6854979 213.26975814 -73.01426608 213.32715867 -69.27636719 213.34472656 C-68.1443689 213.33438889 -67.01237061 213.32405121 -65.84606934 213.31340027 C-62.10166293 213.28388519 -58.35779503 213.28247119 -54.61328125 213.28125 C-52.01823897 213.26627432 -49.42320624 213.24954848 -46.82818604 213.23114014 C-40.69425173 213.19185898 -34.56048773 213.17024004 -28.42644906 213.15716624 C-21.44211334 213.14129543 -14.4579585 213.10287957 -7.4737277 213.06257296 C6.89114719 212.98017692 21.25603018 212.92608302 35.62109375 212.890625 C39.04465417 206.32880086 39.31585707 199.2276385 37.3984375 192.109375 C34.40792728 183.57364735 29.54166706 178.53089225 22.62109375 172.890625 C11.99293044 163.89036699 5.6506427 154.86731391 3.68481445 140.82568359 C2.11161357 129.86837007 -1.24999816 121.49726116 -10.12109375 114.36328125 C-17.51636045 109.53972495 -25.63905881 107.64030688 -34.37890625 108.890625 C-38.16267997 109.96496518 -41.74885538 111.38442479 -45.37890625 112.890625 C-58.53195049 118.01808292 -70.8121251 117.80569426 -83.87890625 112.328125 C-84.83796875 111.89371094 -85.79703125 111.45929688 -86.78515625 111.01171875 C-96.35650406 106.87470547 -104.51272817 108.74138302 -113.87890625 112.390625 C-126.45849485 117.17838772 -139.41588577 118.43925385 -152.04296875 112.98046875 C-152.81382812 112.62082031 -153.5846875 112.26117188 -154.37890625 111.890625 C-169.13036205 105.83289659 -183.89749817 108.47009157 -194.20703125 121.13671875 Z M98.62109375 108.890625 C98.62109375 114.170625 98.62109375 119.450625 98.62109375 124.890625 C100.41546875 124.849375 102.20984375 124.808125 104.05859375 124.765625 C121.44998124 124.80649783 130.67644384 132.91231446 142.54980469 144.80664062 C143.62864342 145.89386244 144.70360477 146.9849472 145.77441406 148.08007812 C147.03928173 149.36754766 148.32794578 150.63156331 149.62109375 151.890625 C149.95109375 151.890625 150.28109375 151.890625 150.62109375 151.890625 C150.73805875 147.55752172 150.80860265 143.2248292 150.87109375 138.890625 C150.90460938 137.66988281 150.938125 136.44914062 150.97265625 135.19140625 C151.06153124 126.97046963 150.52859935 120.91465661 144.65625 114.8671875 C143.67978516 114.19816406 143.67978516 114.19816406 142.68359375 113.515625 C142.03519531 113.05414063 141.38679688 112.59265625 140.71875 112.1171875 C135.63343097 109.143649 131.30379612 108.61400134 125.4765625 108.6953125 C124.70677567 108.6981424 123.93698883 108.70097229 123.14387512 108.70388794 C120.6986195 108.71503343 118.25373763 108.74012719 115.80859375 108.765625 C114.1451876 108.7756621 112.48177568 108.78478667 110.81835938 108.79296875 C106.75234627 108.81324812 102.68713564 108.85240633 98.62109375 108.890625 Z M83.38671875 153.046875 C82.46389099 153.94498901 81.54106323 154.84310303 80.590271 155.76843262 C78.65338955 157.66069103 76.72951146 159.56516565 74.8125 161.47753906 C72.36382643 163.91559729 69.87222556 166.30414223 67.36706924 168.68393707 C64.96734595 170.98197985 62.61835002 173.32967091 60.26171875 175.671875 C58.91524261 176.93819763 58.91524261 176.93819763 57.54156494 178.23010254 C52.99563048 182.71297065 52.99563048 182.71297065 51.57312012 188.66967773 C52.1763692 191.75989311 52.90204573 194.82528482 53.62109375 197.890625 C53.29109375 202.840625 52.96109375 207.790625 52.62109375 212.890625 C91.23109375 212.890625 129.84109375 212.890625 169.62109375 212.890625 C170.60411457 209.94156255 170.85088029 207.78964323 170.93359375 204.703125 C170.97097656 203.80207031 171.00835937 202.90101563 171.046875 201.97265625 C169.73141777 192.45067688 162.79048735 186.43789246 156.30078125 179.96875 C155.27626846 178.93644578 154.25219798 177.90370241 153.22854614 176.87054443 C151.08846452 174.71560788 148.94088886 172.56849437 146.78808594 170.42626953 C144.04764617 167.69741295 141.33061179 164.94650698 138.61927605 162.18877029 C136.51235966 160.05220839 134.39155552 157.92985453 132.26666641 155.81118011 C131.25978276 154.80327866 130.25753582 153.79072048 129.26034164 152.77323151 C122.44152851 145.83279517 116.36900181 141.01527634 106.62109375 139.390625 C96.70874787 141.04268265 90.3960873 146.14144833 83.38671875 153.046875 Z " fill="#000000" transform="translate(288.37890625,55.109375)"/>
<path d="M0 0 C6.98366771 5.82143729 10.60665621 11.29062395 11.64453125 20.35546875 C12.03130877 30.12728902 9.58881974 37.4100567 2.9921875 44.64453125 C-3.70351546 50.51661699 -11.45960048 51.57810394 -20.078125 51.48046875 C-27.73497103 50.78289971 -32.86689782 47.37908224 -38.16015625 41.9609375 C-42.77727595 36.35510126 -44.3350027 30.76653728 -45.09765625 23.6484375 C-44.11190272 14.4480712 -41.16454634 6.5763108 -33.8359375 0.61328125 C-23.51524767 -6.34152545 -10.45365786 -7.10908727 0 0 Z M-24.72265625 14.1484375 C-27.74561383 17.46255814 -28.70668695 20.23818742 -28.78515625 24.7109375 C-27.46066391 28.99605978 -25.8415027 30.95352162 -22.72265625 34.1484375 C-19.50767486 35.7559282 -16.20967367 35.62158299 -12.72265625 35.1484375 C-9.61913167 33.53920253 -7.50564201 32.14496483 -5.34765625 29.3984375 C-4.19678046 25.25528466 -3.61190577 21.24142188 -5.66796875 17.3671875 C-8.22398174 14.08777461 -10.71982778 12.20181341 -14.72265625 11.1484375 C-18.55958886 11.1484375 -21.52284091 12.09504126 -24.72265625 14.1484375 Z " fill="#000000" transform="translate(165.72265625,186.8515625)"/>
<path d="M0 0 C6.81204221 3.60119052 11.32259809 9.73441536 13.765625 17.078125 C15.2177374 25.59500896 14.52408228 33.60971791 10.11328125 41.1171875 C5.32865273 47.42805196 -1.11557568 51.53335453 -8.88671875 53.1171875 C-17.27326418 54.01469499 -24.16746534 52.33116181 -31.15234375 47.57421875 C-36.63589655 43.13660287 -39.57787373 38.37093381 -41.63671875 31.6796875 C-42.46153041 23.22536802 -42.21322403 15.86606055 -37.1875 8.69140625 C-27.57266914 -2.85016871 -13.83644762 -6.39963287 0 0 Z M-24.82421875 19.3671875 C-26.30901064 23.21017828 -26.05337527 26.19658668 -24.88671875 30.1171875 C-23.05386682 33.12830139 -21.59124623 34.69827927 -18.57421875 36.4921875 C-14.42852922 37.45630134 -10.84113967 37.32831634 -7.140625 35.03515625 C-3.22612242 31.92796115 -2.11021224 29.77742483 -1.44921875 24.8671875 C-1.95750748 20.51042699 -2.99649205 18.63269088 -5.9765625 15.51171875 C-12.95719772 10.41542678 -19.63522941 13.3412644 -24.82421875 19.3671875 Z " fill="#000000" transform="translate(257.88671875,83.8828125)"/>
<path d="M0 0 C5.55666868 5.1778049 8.59599673 10.52229704 9.28125 18.1171875 C9.52791909 27.01783056 8.47080451 33.16646739 2.9375 40.1875 C-3.28577412 46.74716732 -9.47189745 49.27916543 -18.5 49.625 C-27.88684364 49.25633243 -33.89638248 46.49581572 -40.4375 39.8125 C-45.0546197 34.20666376 -46.61234645 28.61809978 -47.375 21.5 C-46.45758698 12.93747848 -43.91446265 5.32748936 -37.33203125 -0.46875 C-26.12141426 -8.98188961 -10.90506192 -9.03972238 0 0 Z M-26 12 C-29.47335167 15.38194768 -30.90054576 18.12674217 -31 23 C-29.33395038 27.6279156 -27.30389672 30.56736272 -23 33 C-18.40872366 33.81808197 -15.09855624 33.65445904 -11.0625 31.25 C-7.97744346 27.88448377 -7.10540513 26.15945644 -6.6875 21.5625 C-7.09974388 16.86291974 -8.45671754 14.44039696 -11.875 11.25 C-17.2602146 8.08222671 -20.59685428 9.05282961 -26 12 Z " fill="#000000" transform="translate(270,211)"/>
<path d="M0 0 C1.43712503 1.27744447 2.87398628 2.55520888 4.3046875 3.83984375 C7.57876241 6.08039732 11.11807292 6.35906132 15 6 C18.56922672 4.65352525 21.46163261 2.38079645 24.5625 0.1875 C27.81824168 -1.39863056 29.5770713 -1.04176091 33 0 C34.875 1.0625 34.875 1.0625 36 3 C36.63720833 7.85871353 36.62105407 9.94420808 34.125 14.1875 C28.62323166 19.95726279 20.29262055 23.06662308 12.4375 23.3125 C3.8359939 23.19832072 -3.46503346 20.17822269 -9.7578125 14.3671875 C-12.38304374 11.47778205 -12.27094492 8.71415694 -12.22265625 4.90625 C-12 3 -12 3 -10.6875 1.0625 C-6.87541204 -1.33770353 -4.22646982 -1.1602074 0 0 Z " fill="#000000" transform="translate(244,346)"/>
<path d="M0 0 C2.19140625 1.39453125 2.19140625 1.39453125 4 4 C4.61935388 7.34199386 4.60367221 10.60934774 4.5625 14 C4.58634766 14.90234375 4.61019531 15.8046875 4.63476562 16.734375 C4.62021083 23.29373623 4.62021083 23.29373623 1.69140625 26.62890625 C-1.98024926 28.49937227 -4.08055936 28.08873351 -8 27 C-10.58455285 25.10466125 -10.96275506 24.11173483 -12 21 C-12.14648082 18.73236426 -12.2209626 16.45967634 -12.25 14.1875 C-12.27578125 12.98480469 -12.3015625 11.78210938 -12.328125 10.54296875 C-11.96988255 6.67480325 -11.02701188 4.29143434 -9 1 C-5.90826248 -0.54586876 -3.40570448 -0.29359521 0 0 Z " fill="#000000" transform="translate(322,334)"/>
<path d="M0 0 C2.90717073 2.21863029 3.83981643 3.51944929 5 7 C5.14619515 9.28851645 5.22091336 11.58200316 5.25 13.875 C5.27578125 15.08929688 5.3015625 16.30359375 5.328125 17.5546875 C4.97446831 21.26808278 4.25141594 23.06474277 2 26 C-1 28 -1 28 -4.5 27.8125 C-8.02040245 26.99526372 -8.91447624 26.76111048 -11 24 C-11.62758159 20.71799479 -11.46346507 17.39783075 -11.4375 14.0625 C-11.4674707 12.7022168 -11.4674707 12.7022168 -11.49804688 11.31445312 C-11.49318588 4.70835552 -11.49318588 4.70835552 -9.19140625 1.40234375 C-5.95895014 -0.66619768 -3.75111228 -0.53587318 0 0 Z " fill="#000000" transform="translate(197,334)"/>
</svg>
